{"title":"Blade Runner(1982)MP-4[DaScubaDude]","uid":12349275,"size":1176543254,"categoryP":"video","categoryS":"movies","magnet":"?xt=urn:btih:7a61fcb856236832b5b6f5c77530912bd229ce58&amp;dn=Blade+Runner%281982%29MP-4%5BDaScubaDude%5D&amp;tr=udp%3A%2F%2Ftracker.openbittorrent.com%3A80&amp;tr=udp%3A%2F%2Fopen.demonii.com%3A1337&amp;tr=udp%3A%2F%2Ftracker.coppersurfer.tk%3A6969&amp;tr=udp%3A%2F%2Fexodus.desync.com%3A6969","seeders":0,"leechers":0,"uploader":"dascuba","files":1,"time":1441397420,"description":"Blade Runner (1982)\nR  |  117 min  |  Sci-Fi, Thriller  |  25 June 1982 (USA)\n8.2 Your rating:   -/10   Ratings: 8.2/10 from 419,639 users   Metascore: 88/100 \nReviews: 1,133 user | 284 critic | 10 from Metacritic.com\nA blade runner must pursue and try to terminate four replicants who stole a ship in space and have returned to Earth to find their creator.\n\nDirector: Ridley Scott\nWriters: Hampton Fancher (screenplay), David Webb Peoples (screenplay) (as David Peoples) , 1 more credit Â»\nStars: Harrison Ford, Rutger Hauer, Sean Young\n\n General\nComplete name                            : C:Blade RunnerBLADE RUNNER.mp4\nFormat                                   : MPEG-4\nFormat profile                           : Base Media\nCodec ID                                 : isom\nFile size                                : 1.10 GiB\nDuration                                 : 1h 57mn\nOverall bit rate                         : 1 334 Kbps\nMovie name                               : BLADE_RUNNER_ARCHIVAL_VERSIONS_Title2\nWriting application                      : Lavf54.6.100\n\nVideo\nID                                       : 1\nFormat                                   : AVC\nFormat/Info                              : Advanced Video Codec\nFormat profile                           : Baseline@L3\nFormat settings, CABAC                   : No\nFormat settings, ReFrames                : 6 frames\nCodec ID                                 : avc1\nCodec ID/Info                            : Advanced Video Coding\nDuration                                 : 1h 57mn\nBit rate                                 : 1 199 Kbps\nWidth                                    : 720 pixels\nHeight                                   : 404 pixels\nDisplay aspect ratio                     : 16:9\nFrame rate mode                          : Constant\nFrame rate                               : 29.970 fps\nColor space                              : YUV\nChroma subsampling                       : 4:2:0\nBit depth                                : 8 bits\nScan type                                : Progressive\nBits/(Pixel*Frame)                       : 0.138\nStream size                              : 1 009 MiB (90%)\n\nAudio\nID                                       : 2\nFormat                                   : AAC\nFormat/Info                              : Advanced Audio Codec\nFormat profile                           : LC\nCodec ID                                 : 40\nDuration                                 : 1h 57mn\nBit rate mode                            : Constant\nBit rate                                 : 128 Kbps\nChannel(s)                               : 2 channels\nChannel positions                        : Front: L R\nSampling rate                            : 44.1 KHz\nCompression mode                         : Lossy\nStream size                              : 108 MiB (10%)","torrent":{"xt":"urn:btih:7a61fcb856236832b5b6f5c77530912bd229ce58","amp;dn":"Blade+Runner%281982%29MP-4%5BDaScubaDude%5D","amp;tr":["udp%3A%2F%2Ftracker.openbittorrent.com%3A80","udp%3A%2F%2Fopen.demonii.com%3A1337","udp%3A%2F%2Ftracker.coppersurfer.tk%3A6969","udp%3A%2F%2Fexodus.desync.com%3A6969"],"infoHash":"7a61fcb856236832b5b6f5c77530912bd229ce58","infoHashBuffer":{"type":"Buffer","data":[122,97,252,184,86,35,104,50,181,182,245,199,117,48,145,43,210,41,206,88]},"announce":[],"urlList":[]}}